name C:\Users\r0593348\3dpredictsim\Results\batch_windlass\Pog_s1_tmt_bCst_d00_k800_WL40_ig24_pas.mot
datacolumns 128
datarows 4
range 1.68118009 1.71480370
endheader
time	pelvis_tilt	pelvis_list	pelvis_rotation	pelvis_tx	pelvis_ty	pelvis_tz	hip_flexion_l	hip_adduction_l	hip_rotation_l	hip_flexion_r	hip_adduction_r	hip_rotation_r	knee_angle_l	knee_angle_r	ankle_angle_l	ankle_angle_r	subtalar_angle_l	subtalar_angle_r	tmt_angle_l	tmt_angle_r	mtp_angle_l	mtp_angle_r	lumbar_extension	lumbar_bending	lumbar_rotation	arm_flex_l	arm_add_l	arm_rot_l	arm_flex_r	arm_add_r	arm_rot_r	elbow_flex_l	elbow_flex_r	pro_sup_l	pro_sup_r	glut_med1_l/activation	glut_med2_l/activation	glut_med3_l/activation	glut_min1_l/activation	glut_min2_l/activation	glut_min3_l/activation	semimem_l/activation	semiten_l/activation	bifemlh_l/activation	bifemsh_l/activation	sar_l/activation	add_long_l/activation	add_brev_l/activation	add_mag1_l/activation	add_mag2_l/activation	add_mag3_l/activation	tfl_l/activation	pect_l/activation	grac_l/activation	glut_max1_l/activation	glut_max2_l/activation	glut_max3_l/activation	iliacus_l/activation	psoas_l/activation	quad_fem_l/activation	gem_l/activation	peri_l/activation	rect_fem_l/activation	vas_med_l/activation	vas_int_l/activation	vas_lat_l/activation	med_gas_l/activation	lat_gas_l/activation	soleus_l/activation	tib_post_l/activation	flex_dig_l/activation	flex_hal_l/activation	tib_ant_l/activation	per_brev_l/activation	per_long_l/activation	per_tert_l/activation	ext_dig_l/activation	ext_hal_l/activation	ercspn_l/activation	intobl_l/activation	extobl_l/activation	glut_med1_r/activation	glut_med2_r/activation	glut_med3_r/activation	glut_min1_r/activation	glut_min2_r/activation	glut_min3_r/activation	semimem_r/activation	semiten_r/activation	bifemlh_r/activation	bifemsh_r/activation	sar_r/activation	add_long_r/activation	add_brev_r/activation	add_mag1_r/activation	add_mag2_r/activation	add_mag3_r/activation	tfl_r/activation	pect_r/activation	grac_r/activation	glut_max1_r/activation	glut_max2_r/activation	glut_max3_r/activation	iliacus_r/activation	psoas_r/activation	quad_fem_r/activation	gem_r/activation	peri_r/activation	rect_fem_r/activation	vas_med_r/activation	vas_int_r/activation	vas_lat_r/activation	med_gas_r/activation	lat_gas_r/activation	soleus_r/activation	tib_post_r/activation	flex_dig_r/activation	flex_hal_r/activation	tib_ant_r/activation	per_brev_r/activation	per_long_r/activation	per_tert_r/activation	ext_dig_r/activation	ext_hal_r/activation	ercspn_r/activation	intobl_r/activation	extobl_r/activation	
          1.68118009	         -2.92418610	          1.87599855	         -6.02372646	          2.10147512	          0.85863903	          0.00290371	         31.29492748	          2.52521299	         -3.14413654	        -17.74910664	         -1.64078563	          6.93258664	        -14.94109068	         -9.42763321	          6.70030653	          2.15384378	         -0.65826903	         13.01151805	         -0.43064506	        -12.05462176	          0.94973738	         29.69904225	         -1.36959939	         -0.34357523	          2.13833721	        -10.47043826	        -13.52783877	          7.47092479	          6.04144154	        -13.47894179	         17.06786306	         15.93014272	         38.70591557	         86.51662706	         86.51662706	          0.05000037	          0.05000019	          0.05000427	          0.05000022	          0.05000024	          0.05000062	          0.05933989	          0.05000064	          0.18791344	          0.05000008	          0.05000108	          0.09781297	          0.17949588	          0.13636261	          0.17587881	          0.13005662	          0.05000039	          0.05860091	          0.05000881	          0.05000066	          0.10895898	          0.11906148	          0.05508915	          0.05406082	          0.22910450	          0.05268756	          0.05490191	          0.05273057	          0.16019770	          0.16080890	          0.13606279	          0.05933986	          0.05343223	          0.05933988	          0.05000002	          0.05000034	          0.05000307	          0.55947685	          0.34308050	          0.19484719	          0.27731167	          0.61412783	          0.35571766	          0.05165106	          0.09150739	          0.09873349	          0.27711982	          0.08260281	          0.05000002	          0.28352157	          0.16870647	          0.08270870	          0.05000064	          0.05000010	          0.05000007	          0.06510581	          0.07497822	          0.13976484	          0.07309741	          0.05000072	          0.05000064	          0.05000024	          0.25028228	          0.08295862	          0.05000046	          0.05000063	          0.05000038	          0.05000024	          0.30411920	          0.52417681	          0.05000005	          0.05000016	          0.05000004	          0.22704950	          0.13969549	          0.09537713	          0.05461998	          0.25608096	          0.33110688	          0.20580195	          0.19961816	          0.18378332	          0.25341018	          0.05000000	          0.14071529	          0.18730099	          0.05000008	          0.05000001	          0.05000006	          0.05000001	          0.05000002	          0.05000004	
          1.69238796	         -2.91278914	          1.93902361	         -6.22166390	          2.11901322	          0.85783891	          0.00266554	         30.53424226	          2.91145749	         -2.95155581	        -17.54198977	         -1.90725221	          6.74261883	        -14.71304302	        -11.46360086	          6.21309176	          0.94074663	         -1.08608595	         13.86268114	         -0.52548449	        -12.63778447	          1.19050127	         30.53871598	         -1.12870399	         -0.58135734	          2.22400936	        -11.65412697	        -13.51412865	          7.28110143	          5.69696018	        -13.51079706	         17.27648934	         15.87759804	         39.87307321	         86.51662706	         86.51662706	          0.05000008	          0.05000038	          0.10857321	          0.05000008	          0.05000016	          0.05000018	          0.05000003	          0.05000013	          0.15833657	          0.05000011	          0.05000023	          0.08241766	          0.15124403	          0.33938300	          0.24611599	          0.11758433	          0.05000015	          0.05000074	          0.05000080	          0.05933996	          0.12494937	          0.13900409	          0.05000003	          0.05000008	          0.49743605	          0.10217867	          0.08263594	          0.07042445	          0.25028106	          0.25391276	          0.21540002	          0.05000000	          0.05000000	          0.05000000	          0.05000039	          0.07042391	          0.05000048	          0.63854683	          0.30566761	          0.22362159	          0.46677487	          0.63030592	          0.29972920	          0.05000000	          0.07710445	          0.08319319	          0.23350217	          0.06960144	          0.05000014	          0.23889633	          0.14215270	          0.06969068	          0.05000115	          0.05000008	          0.05000010	          0.05485840	          0.06317697	          0.19498558	          0.20916592	          0.17717960	          0.07212335	          0.14559717	          0.21088881	          0.06990155	          0.05000019	          0.05000186	          0.05000185	          0.05000590	          0.25625193	          0.44455505	          0.05000011	          0.05000179	          0.05933985	          0.19131272	          0.11772123	          0.11772708	          0.11772095	          0.21577472	          0.27899183	          0.17340945	          0.16819899	          0.15485655	          0.21352436	          0.07984844	          0.11856725	          0.15782052	          0.05000013	          0.11281649	          0.05000030	          0.06103305	          0.07042445	          0.05000132	
          1.70359583	         -2.89650102	          2.00972957	         -6.39102508	          2.13672358	          0.85681675	          0.00245280	         29.63304364	          3.23308913	         -2.68779339	        -17.23805182	         -2.15882897	          6.53817005	        -14.98116206	        -13.70320291	          5.67141667	         -0.31102988	         -1.54857196	         14.63292365	         -0.80105187	        -12.90119611	          1.39481665	         30.62350666	         -0.87777420	         -0.83382525	          2.29562485	        -12.80259434	        -13.51259112	          7.19378041	          5.28569821	        -13.54322815	         17.40500471	         15.77503832	         41.02334709	         86.51662706	         86.51662706	          0.29677525	          0.27388498	          0.32845166	          0.05004723	          0.05000037	          0.25792317	          0.09142009	          0.05000020	          0.15071145	          0.05000003	          0.05000021	          0.07042968	          0.20060958	          0.28596543	          0.24308581	          0.16308831	          0.05000012	          0.07042422	          0.12100010	          0.05000011	          0.10528322	          0.14465713	          0.05000167	          0.05000015	          0.41914139	          0.08609617	          0.22634253	          0.05933989	          0.21088777	          0.21394788	          0.18149687	          0.05933987	          0.05933987	          0.05933988	          0.05000004	          0.05933960	          0.05933987	          0.59695861	          0.39594221	          0.18842443	          0.53825988	          0.67748133	          0.25255292	          0.05155486	          0.08202421	          0.07009888	          0.27503142	          0.05864645	          0.05000007	          0.20129498	          0.11977840	          0.05872167	          0.05000089	          0.05000025	          0.05000050	          0.05000003	          0.05323324	          0.16662517	          0.34518080	          0.14929238	          0.06077259	          0.12268093	          0.17769584	          0.08355830	          0.05000186	          0.05000230	          0.05000255	          0.05933930	          0.21591880	          0.40796989	          0.05000526	          0.05000052	          0.05000006	          0.16120078	          0.09919234	          0.09919727	          0.09919210	          0.18181254	          0.23507950	          0.14611542	          0.14172509	          0.13048274	          0.17991643	          0.17427144	          0.18536266	          0.18734834	          0.05000088	          0.21516298	          0.11564797	          0.07810274	          0.05933989	          0.05000006	
          1.71480370	         -2.87745907	          2.09116352	         -6.52623707	          2.15436277	          0.85559335	          0.00222876	         28.64198648	          3.53154540	         -2.39525005	        -16.79583357	         -2.39659538	          6.33935281	        -15.34444640	        -16.21023178	          5.49041064	         -1.49675536	         -2.02772889	         15.30538549	         -1.33218578	        -12.60735419	          1.57832359	         29.47532734	         -0.63914772	         -1.10171931	          2.35514884	        -13.86063175	        -13.52287209	          7.22900856	          4.84844231	        -13.57805720	         17.46946417	         15.59299984	         42.13143785	         86.51662706	         86.51662706	          0.38696141	          0.43238659	          0.49703461	          0.22916759	          0.25583072	          0.35841171	          0.07703095	          0.11621914	          0.12699001	          0.07048704	          0.05000052	          0.05934432	          0.16903436	          0.24095556	          0.20482619	          0.17655879	          0.05000011	          0.05933988	          0.10794631	          0.27595923	          0.21049175	          0.17121928	          0.05000004	          0.05000004	          0.35317004	          0.07254523	          0.26378055	          0.05000002	          0.17769496	          0.25143161	          0.16628813	          0.05000000	          0.05000000	          0.05000000	          0.05000000	          0.05000010	          0.05000006	          0.75513482	          0.33362240	          0.15933287	          0.73572428	          0.71978346	          0.50119059	          0.07982108	          0.07042460	          0.05906557	          0.23174254	          0.05000007	          0.05000003	          0.25357033	          0.10092576	          0.05000018	          0.05000275	          0.05000011	          0.05000009	          0.05000021	          0.05934023	          0.14040003	          0.29085061	          0.12579434	          0.05120732	          0.10337146	          0.22333729	          0.07040678	          0.05000033	          0.05000060	          0.05000035	          0.05000017	          0.18193398	          0.38611200	          0.05000003	          0.05000020	          0.05000008	          0.13582835	          0.08357982	          0.08358397	          0.08357962	          0.15319589	          0.19807883	          0.12311737	          0.12098233	          0.10994532	          0.15159842	          0.17784083	          0.15618742	          0.15786046	          0.10109932	          0.20921280	          0.09744550	          0.11119322	          0.05000000	          0.05000001	
